<?xml version="1.0" encoding="UTF-8"?>
<svg id="Layer_1" xmlns="http://www.w3.org/2000/svg" version="1.1" viewBox="-3300 -2500 7600 6000">
  <!-- Generator: Adobe Illustrator 29.8.0, SVG Export Plug-In . SVG Version: 2.1.1 Build 160)  -->
  <defs>
    <style>
      .st0 {
        font-family: ArialMT, Arial;
      }

      .st0, .st1, .st2, .st3, .st4 {
        isolation: isolate;
      }

      .st0, .st1, .st2, .st4 {
        font-size: 400px;
      }

      .st0, .st4 {
        fill: #fff;
      }

      .st1, .st2, .st4 {
        font-family: NotoSansSC-Bold, 'Noto Sans SC';
        font-weight: 700;
      }

      .st1, .st5 {
        fill: #4f8eff;
      }

      .st2, .st6 {
        fill: #e84a5f;
      }

      .st7 {
        mix-blend-mode: multiply;
      }
    </style>
  </defs>
  <g class="st3">
    <g id="Layer_11" data-name="Layer_1">
      <g>
        <g class="st7">
          <path class="st5" d="M-989.25-2224.17c-1195.42,0-2164.5,928.79-2164.5,2074.5,0,431.86,137.69,832.9,373.29,1165,39.85,56.17,82.51,110.37,127.77,162.41l-340.07,1243.16,1119.83-676.28c269.83,115.8,568.91,180.21,883.69,180.21,1195.42,0,2164.5-928.79,2164.5-2074.5S206.17-2224.17-989.25-2224.17Z"/>
        </g>
        <g class="st7">
          <path class="st6" d="M3652.69,1167.68c45.26-52.04,87.92-106.24,127.77-162.41,235.6-332.1,373.29-733.14,373.29-1165,0-1145.71-969.08-2074.5-2164.5-2074.5S-175.25-1305.45-175.25-159.74,793.83,1914.76,1989.25,1914.76c314.78,0,613.86-64.41,883.69-180.21l1119.83,676.28-340.07-1243.16h-.01Z"/>
        </g>
        <g class="st3">
          <text class="st0" transform="translate(-1390.25 -154.17)"><tspan x="0" y="0">EN</tspan></text>
        </g>
        <g class="st3">
          <text class="st4" transform="translate(2038.75 -91.17)"><tspan x="0" y="0">中</tspan></text>
        </g>
        <g class="st3">
          <text class="st2" transform="translate(-742.25 2815.83)"><tspan x="0" y="0">Trans</tspan></text>
          <text class="st1" transform="translate(373.34 2815.83)"><tspan x="0" y="0">Refine</tspan></text>
        </g>
      </g>
    </g>
  </g>
</svg>
